<svg width="1345" height="1345" viewBox="0 0 1345 1345" fill="none" xmlns="http://www.w3.org/2000/svg">
<path d="M673 1344C1044.14 1344 1345 1043.14 1345 672C1345 300.864 1044.14 -0.000976562 673 -0.000976562C301.864 -0.000976562 0.998993 300.864 0.998993 672C0.998993 1043.14 301.864 1344 673 1344Z" fill="#424242"/>
<path fill-rule="evenodd" clip-rule="evenodd" d="M900.558 1304.46C829.487 1330.03 752.879 1344 673 1344C621.445 1344 571.253 1338.18 523.028 1327.18C523.02 1314.88 522.909 1303.21 522.762 1287.73C522.591 1269.72 522.377 1247.34 522.2 1221.68C329.315 1256.7 284.284 1121.23 282.436 1115.4C251.744 1037.82 209.536 1018.04 209.413 1017.98L207.829 1017.1C110.613 950.66 219.18 952.037 219.487 952.038H220.233C296.269 957.39 336.765 1027.5 338.972 1031.41C362.094 1071.01 390.531 1090.54 418.786 1098.6C459.772 1110.3 501.103 1098.47 525.516 1088.38C528.904 1068.36 534.482 1051.05 541.444 1036.39C546.135 1026.51 551.47 1017.8 557.208 1010.23C483.55 999.783 409.733 978.443 352.069 929.901C288.088 876.04 244.724 789.523 244.724 648.827H244.77C244.776 609.483 251.586 573.641 264.014 541.256C276.33 509.156 294.181 480.397 316.409 454.936C312.157 442.852 306.251 421.791 304.386 393.909C302.106 359.81 305.826 315.319 326.001 264.308L326.467 263.378C326.48 263.353 335.239 255.893 347.619 255.267C355.786 254.854 368.114 255.282 384.751 258.646C417.149 265.197 466.779 283.164 535.294 328.905C562.363 321.629 590.302 316.099 618.642 312.286C649.304 308.163 680.527 306.047 711.708 305.909H711.801C742.947 306.047 774.134 308.164 804.778 312.285C833.13 316.099 861.095 321.633 888.214 328.91C1025.94 236.935 1089.41 257.221 1089.6 257.275L1095.15 258.92L1097.28 264.308C1117.54 315.386 1121.29 359.835 1119.03 393.862C1117.18 421.738 1111.3 442.79 1107.07 454.884C1129.28 480.281 1147.08 509.005 1159.36 541.092C1171.82 573.607 1178.61 609.511 1178.61 648.828C1178.61 789.914 1135.18 876.391 1071.07 930.059C1013.37 978.37 939.463 999.433 865.648 1009.71C874.279 1021 882.038 1034.89 888.097 1051.42C896.25 1073.69 901.362 1100.81 901.362 1132.86C901.362 1190.06 900.939 1249.58 900.66 1288.98C900.62 1294.55 900.585 1299.57 900.556 1304.46L900.558 1304.46ZM305.204 1056.31C310.284 1056.83 314.02 1060.96 313.551 1065.54C313.081 1070.12 308.583 1073.4 303.504 1072.88C298.424 1072.36 294.689 1068.23 295.157 1063.65C295.628 1059.07 300.125 1055.79 305.204 1056.31ZM324.357 1105.65C324.826 1101.07 329.323 1097.78 334.403 1098.3C339.482 1098.82 343.219 1102.96 342.749 1107.54C342.28 1112.11 337.782 1115.4 332.702 1114.88C327.624 1114.36 323.888 1110.23 324.357 1105.65ZM257.997 992.041C263.076 992.562 266.812 996.696 266.343 1001.27C265.873 1005.85 261.376 1009.14 256.297 1008.62C251.217 1008.1 247.481 1003.96 247.95 999.388C248.42 994.81 252.918 991.52 257.997 992.041ZM282.546 1019.43C287.626 1019.95 291.361 1024.08 290.893 1028.66C290.422 1033.24 285.925 1036.53 280.846 1036.01C275.767 1035.49 272.03 1031.35 272.5 1026.77C272.969 1022.2 277.467 1018.91 282.546 1019.43H282.546ZM373.758 1127.28C378.838 1127.8 382.573 1131.93 382.104 1136.51C381.634 1141.09 377.137 1144.38 372.058 1143.86C366.978 1143.33 363.242 1139.2 363.711 1134.62C364.181 1130.05 368.679 1126.76 373.758 1127.28ZM430.375 1142.7C435.454 1143.22 439.191 1147.36 438.722 1151.93C438.252 1156.51 433.754 1159.8 428.675 1159.28C423.595 1158.76 419.86 1154.63 420.328 1150.05C420.799 1145.47 425.296 1142.18 430.375 1142.7ZM482.699 1138.45C487.778 1138.97 491.514 1143.1 491.045 1147.68C490.576 1152.26 486.078 1155.55 480.998 1155.03C475.92 1154.51 472.183 1150.37 472.653 1145.79C473.121 1141.22 477.619 1137.93 482.699 1138.45Z" fill="#FFFFFE"/>
</svg>
